<mxfile host="app.diagrams.net" modified="2021-11-11T10:40:31.746Z" agent="5.0 (Windows NT 10.0; Win64; x64) AppleWebKit/537.36 (KHTML, like Gecko) Chrome/95.0.4638.69 Safari/537.36" etag="pEiAO8CgSGr21qUCT1Tn" version="15.7.3" type="github">
  <diagram id="C5RBs43oDa-KdzZeNtuy" name="Page-1">
    <mxGraphModel dx="1422" dy="766" grid="1" gridSize="10" guides="1" tooltips="1" connect="1" arrows="1" fold="1" page="1" pageScale="1" pageWidth="827" pageHeight="1169" math="0" shadow="0">
      <root>
        <mxCell id="WIyWlLk6GJQsqaUBKTNV-0" />
        <mxCell id="WIyWlLk6GJQsqaUBKTNV-1" parent="WIyWlLk6GJQsqaUBKTNV-0" />
        <mxCell id="WIyWlLk6GJQsqaUBKTNV-2" value="" style="rounded=0;html=1;jettySize=auto;orthogonalLoop=1;fontSize=11;endArrow=block;endFill=0;endSize=8;strokeWidth=1;shadow=0;labelBackgroundColor=none;edgeStyle=orthogonalEdgeStyle;" parent="WIyWlLk6GJQsqaUBKTNV-1" source="WIyWlLk6GJQsqaUBKTNV-3" edge="1">
          <mxGeometry relative="1" as="geometry">
            <mxPoint x="400" y="170" as="targetPoint" />
          </mxGeometry>
        </mxCell>
        <mxCell id="WIyWlLk6GJQsqaUBKTNV-3" value="Comanda in" style="rounded=1;whiteSpace=wrap;html=1;fontSize=12;glass=0;strokeWidth=1;shadow=0;" parent="WIyWlLk6GJQsqaUBKTNV-1" vertex="1">
          <mxGeometry x="340" y="80" width="120" height="40" as="geometry" />
        </mxCell>
        <mxCell id="q8qoteSag4bHkMR6Cs9O-3" value="" style="edgeStyle=orthogonalEdgeStyle;rounded=0;orthogonalLoop=1;jettySize=auto;html=1;entryX=-0.007;entryY=0.175;entryDx=0;entryDy=0;entryPerimeter=0;" edge="1" parent="WIyWlLk6GJQsqaUBKTNV-1" source="q8qoteSag4bHkMR6Cs9O-1" target="q8qoteSag4bHkMR6Cs9O-13">
          <mxGeometry relative="1" as="geometry">
            <mxPoint x="510" y="195" as="targetPoint" />
          </mxGeometry>
        </mxCell>
        <mxCell id="q8qoteSag4bHkMR6Cs9O-18" value="" style="edgeStyle=orthogonalEdgeStyle;rounded=0;orthogonalLoop=1;jettySize=auto;html=1;" edge="1" parent="WIyWlLk6GJQsqaUBKTNV-1" source="q8qoteSag4bHkMR6Cs9O-1">
          <mxGeometry relative="1" as="geometry">
            <mxPoint x="400" y="280" as="targetPoint" />
          </mxGeometry>
        </mxCell>
        <mxCell id="q8qoteSag4bHkMR6Cs9O-1" value="Comanda interna (acceptata)" style="rounded=1;whiteSpace=wrap;html=1;" vertex="1" parent="WIyWlLk6GJQsqaUBKTNV-1">
          <mxGeometry x="340" y="170" width="120" height="50" as="geometry" />
        </mxCell>
        <UserObject label="Comanda internaÂ " link="https://github.com/VladMiu/Vulcom/blob/main/Poze Documente Vulcom/comandaInterna.jpg" id="q8qoteSag4bHkMR6Cs9O-13">
          <mxCell style="swimlane;fontStyle=0;childLayout=stackLayout;horizontal=1;startSize=30;horizontalStack=0;resizeParent=1;resizeParentMax=0;resizeLast=0;collapsible=1;marginBottom=0;rounded=0;" vertex="1" parent="WIyWlLk6GJQsqaUBKTNV-1">
            <mxGeometry x="510" y="110" width="140" height="120" as="geometry" />
          </mxCell>
        </UserObject>
        <mxCell id="q8qoteSag4bHkMR6Cs9O-14" value="Item 1" style="text;strokeColor=none;fillColor=none;align=left;verticalAlign=middle;spacingLeft=4;spacingRight=4;overflow=hidden;points=[[0,0.5],[1,0.5]];portConstraint=eastwest;rotatable=0;rounded=0;" vertex="1" parent="q8qoteSag4bHkMR6Cs9O-13">
          <mxGeometry y="30" width="140" height="30" as="geometry" />
        </mxCell>
        <mxCell id="q8qoteSag4bHkMR6Cs9O-15" value="Item 2" style="text;strokeColor=none;fillColor=none;align=left;verticalAlign=middle;spacingLeft=4;spacingRight=4;overflow=hidden;points=[[0,0.5],[1,0.5]];portConstraint=eastwest;rotatable=0;rounded=0;" vertex="1" parent="q8qoteSag4bHkMR6Cs9O-13">
          <mxGeometry y="60" width="140" height="30" as="geometry" />
        </mxCell>
        <mxCell id="q8qoteSag4bHkMR6Cs9O-16" value="Item 3" style="text;strokeColor=none;fillColor=none;align=left;verticalAlign=middle;spacingLeft=4;spacingRight=4;overflow=hidden;points=[[0,0.5],[1,0.5]];portConstraint=eastwest;rotatable=0;rounded=0;" vertex="1" parent="q8qoteSag4bHkMR6Cs9O-13">
          <mxGeometry y="90" width="140" height="30" as="geometry" />
        </mxCell>
        <mxCell id="q8qoteSag4bHkMR6Cs9O-21" value="" style="edgeStyle=orthogonalEdgeStyle;rounded=0;orthogonalLoop=1;jettySize=auto;html=1;" edge="1" parent="WIyWlLk6GJQsqaUBKTNV-1" source="q8qoteSag4bHkMR6Cs9O-19">
          <mxGeometry relative="1" as="geometry">
            <mxPoint x="400" y="390" as="targetPoint" />
          </mxGeometry>
        </mxCell>
        <mxCell id="q8qoteSag4bHkMR6Cs9O-19" value="&lt;span&gt;Lumi verifica stocul in DB (des e incorect)&amp;nbsp;&lt;br&gt;&lt;/span&gt;" style="rounded=1;whiteSpace=wrap;html=1;" vertex="1" parent="WIyWlLk6GJQsqaUBKTNV-1">
          <mxGeometry x="340" y="280" width="120" height="50" as="geometry" />
        </mxCell>
        <mxCell id="q8qoteSag4bHkMR6Cs9O-22" value="" style="edgeStyle=orthogonalEdgeStyle;rounded=0;orthogonalLoop=1;jettySize=auto;html=1;exitX=0.5;exitY=0;exitDx=0;exitDy=0;" edge="1" parent="WIyWlLk6GJQsqaUBKTNV-1" source="q8qoteSag4bHkMR6Cs9O-20" target="q8qoteSag4bHkMR6Cs9O-19">
          <mxGeometry relative="1" as="geometry" />
        </mxCell>
        <mxCell id="q8qoteSag4bHkMR6Cs9O-27" value="" style="edgeStyle=orthogonalEdgeStyle;rounded=0;orthogonalLoop=1;jettySize=auto;html=1;entryX=-0.014;entryY=0.108;entryDx=0;entryDy=0;entryPerimeter=0;" edge="1" parent="WIyWlLk6GJQsqaUBKTNV-1" source="q8qoteSag4bHkMR6Cs9O-20" target="q8qoteSag4bHkMR6Cs9O-23">
          <mxGeometry relative="1" as="geometry" />
        </mxCell>
        <mxCell id="q8qoteSag4bHkMR6Cs9O-29" value="" style="edgeStyle=orthogonalEdgeStyle;rounded=0;orthogonalLoop=1;jettySize=auto;html=1;" edge="1" parent="WIyWlLk6GJQsqaUBKTNV-1" source="q8qoteSag4bHkMR6Cs9O-20" target="q8qoteSag4bHkMR6Cs9O-28">
          <mxGeometry relative="1" as="geometry" />
        </mxCell>
        <mxCell id="q8qoteSag4bHkMR6Cs9O-20" value="Lumi scrie ticketele pt prese (ar trebui Dan)" style="whiteSpace=wrap;html=1;rounded=1;" vertex="1" parent="WIyWlLk6GJQsqaUBKTNV-1">
          <mxGeometry x="340" y="390" width="120" height="50" as="geometry" />
        </mxCell>
        <UserObject label="Ticket" link="https://github.com/VladMiu/Vulcom/blob/main/Poze Documente Vulcom/ticket_etMinus.jpg" id="q8qoteSag4bHkMR6Cs9O-23">
          <mxCell style="swimlane;fontStyle=0;childLayout=stackLayout;horizontal=1;startSize=30;horizontalStack=0;resizeParent=1;resizeParentMax=0;resizeLast=0;collapsible=1;marginBottom=0;rounded=0;" vertex="1" parent="WIyWlLk6GJQsqaUBKTNV-1">
            <mxGeometry x="510" y="330" width="140" height="120" as="geometry" />
          </mxCell>
        </UserObject>
        <mxCell id="q8qoteSag4bHkMR6Cs9O-24" value="Item 1" style="text;strokeColor=none;fillColor=none;align=left;verticalAlign=middle;spacingLeft=4;spacingRight=4;overflow=hidden;points=[[0,0.5],[1,0.5]];portConstraint=eastwest;rotatable=0;rounded=0;" vertex="1" parent="q8qoteSag4bHkMR6Cs9O-23">
          <mxGeometry y="30" width="140" height="30" as="geometry" />
        </mxCell>
        <mxCell id="q8qoteSag4bHkMR6Cs9O-25" value="Item 2" style="text;strokeColor=none;fillColor=none;align=left;verticalAlign=middle;spacingLeft=4;spacingRight=4;overflow=hidden;points=[[0,0.5],[1,0.5]];portConstraint=eastwest;rotatable=0;rounded=0;" vertex="1" parent="q8qoteSag4bHkMR6Cs9O-23">
          <mxGeometry y="60" width="140" height="30" as="geometry" />
        </mxCell>
        <mxCell id="q8qoteSag4bHkMR6Cs9O-26" value="Item 3" style="text;strokeColor=none;fillColor=none;align=left;verticalAlign=middle;spacingLeft=4;spacingRight=4;overflow=hidden;points=[[0,0.5],[1,0.5]];portConstraint=eastwest;rotatable=0;rounded=0;" vertex="1" parent="q8qoteSag4bHkMR6Cs9O-23">
          <mxGeometry y="90" width="140" height="30" as="geometry" />
        </mxCell>
        <mxCell id="q8qoteSag4bHkMR6Cs9O-31" value="" style="edgeStyle=orthogonalEdgeStyle;rounded=0;orthogonalLoop=1;jettySize=auto;html=1;entryX=0.5;entryY=0;entryDx=0;entryDy=0;" edge="1" parent="WIyWlLk6GJQsqaUBKTNV-1" source="q8qoteSag4bHkMR6Cs9O-28" target="q8qoteSag4bHkMR6Cs9O-32">
          <mxGeometry relative="1" as="geometry">
            <mxPoint x="400" y="630" as="targetPoint" />
          </mxGeometry>
        </mxCell>
        <mxCell id="q8qoteSag4bHkMR6Cs9O-28" value="Lumi face comanda interna si ticketele" style="whiteSpace=wrap;html=1;rounded=1;" vertex="1" parent="WIyWlLk6GJQsqaUBKTNV-1">
          <mxGeometry x="340" y="510" width="120" height="50" as="geometry" />
        </mxCell>
        <mxCell id="q8qoteSag4bHkMR6Cs9O-42" value="NU" style="edgeStyle=orthogonalEdgeStyle;rounded=0;orthogonalLoop=1;jettySize=auto;html=1;exitX=0.5;exitY=1;exitDx=0;exitDy=0;" edge="1" parent="WIyWlLk6GJQsqaUBKTNV-1" source="q8qoteSag4bHkMR6Cs9O-32">
          <mxGeometry relative="1" as="geometry">
            <mxPoint x="400" y="740" as="targetPoint" />
          </mxGeometry>
        </mxCell>
        <mxCell id="q8qoteSag4bHkMR6Cs9O-32" value="E deja pe stoc?" style="rhombus;whiteSpace=wrap;html=1;rounded=0;" vertex="1" parent="WIyWlLk6GJQsqaUBKTNV-1">
          <mxGeometry x="360" y="600" width="80" height="80" as="geometry" />
        </mxCell>
        <mxCell id="q8qoteSag4bHkMR6Cs9O-37" value="" style="edgeStyle=orthogonalEdgeStyle;rounded=0;orthogonalLoop=1;jettySize=auto;html=1;" edge="1" parent="WIyWlLk6GJQsqaUBKTNV-1" source="q8qoteSag4bHkMR6Cs9O-33" target="q8qoteSag4bHkMR6Cs9O-32">
          <mxGeometry relative="1" as="geometry" />
        </mxCell>
        <mxCell id="q8qoteSag4bHkMR6Cs9O-33" value="2 fise comanda - una birou (Lumi), una debavurare(Lenche)" style="whiteSpace=wrap;html=1;rounded=0;" vertex="1" parent="WIyWlLk6GJQsqaUBKTNV-1">
          <mxGeometry x="580" y="610" width="120" height="60" as="geometry" />
        </mxCell>
        <mxCell id="q8qoteSag4bHkMR6Cs9O-35" value="" style="endArrow=classic;html=1;rounded=0;exitX=1;exitY=0.5;exitDx=0;exitDy=0;entryX=0;entryY=0.5;entryDx=0;entryDy=0;" edge="1" parent="WIyWlLk6GJQsqaUBKTNV-1" source="q8qoteSag4bHkMR6Cs9O-32" target="q8qoteSag4bHkMR6Cs9O-33">
          <mxGeometry relative="1" as="geometry">
            <mxPoint x="460" y="669.5" as="sourcePoint" />
            <mxPoint x="490" y="670" as="targetPoint" />
          </mxGeometry>
        </mxCell>
        <mxCell id="q8qoteSag4bHkMR6Cs9O-36" value="DA" style="edgeLabel;resizable=0;html=1;align=center;verticalAlign=middle;rounded=0;" connectable="0" vertex="1" parent="q8qoteSag4bHkMR6Cs9O-35">
          <mxGeometry relative="1" as="geometry" />
        </mxCell>
      </root>
    </mxGraphModel>
  </diagram>
</mxfile>
